PathFileType	4	(X/Y/Z)	/Users/visionmauri/Downloads/Videos/OAW12-top_Sports2D/OAW12-top_Sports2D_px_person00.trc
DataRate	CameraRate	NumFrames	NumMarkers	Units	OrigDataRate	OrigDataStartFrame	OrigNumFrames
25.0	25.0	6	22	m	25.0	432	1729
Frame#	Time	Hip			RHip			RKnee			RAnkle			RBigToe			RSmallToe			RHeel			LHip			LKnee			LAnkle			LBigToe			LSmallToe			LHeel			Neck			Head			Nose			RShoulder			RElbow			RWrist			LShoulder			LElbow			LWrist			
		X1	Y1	Z1	X2	Y2	Z2	X3	Y3	Z3	X4	Y4	Z4	X5	Y5	Z5	X6	Y6	Z6	X7	Y7	Z7	X8	Y8	Z8	X9	Y9	Z9	X10	Y10	Z10	X11	Y11	Z11	X12	Y12	Z12	X13	Y13	Z13	X14	Y14	Z14	X15	Y15	Z15	X16	Y16	Z16	X17	Y17	Z17	X18	Y18	Z18	X19	Y19	Z19	X20	Y20	Z20	X21	Y21	Z21	X22	Y22	Z22
432	17.29	583.6988173060565	721.8750928746737	0.0	544.3117396196363	722.3104882969249	0.0	535.3478004032019	863.2058746387048	0.0	540.5906433165832	945.3293182105118	0.0	539.1145038443183	1008.1703521249585	0.0	520.6860465763815	996.4142663863571	0.0	544.6281128487113	951.3440814801465	0.0	618.2140371558113	723.3009726752937	0.0	600.769546631437	863.4893003566043	0.0	587.9404020880656	977.723542026537	0.0	582.177843394378	1028.526051423202	0.0	602.5873637405142	1021.2938188876736	0.0	582.6650665176535	995.0660642885223	0.0	596.4507210993602	512.2597609796586	0.0	590.4437968250143	403.4707127308136	0.0	592.5447527141231	486.81224029832526	0.0	531.1878430152426	538.0824743575542	0.0	500.9703636294259	648.9632274993281	0.0	484.6852801699816	742.6742140553636	0.0	662.4983179652714	538.1472437662434	0.0	684.960921478037	649.0824646039455	0.0	694.7124090944465	743.2821023585568	0.0
433	17.330023148148147	582.3642210641174	725.6510322080653	0.0	542.6723341816145	724.9345013950729	0.0	534.6203831710795	869.8680386342035	0.0	536.3219629126041	970.9078564515961	0.0	533.322900451517	1030.1257987045053	0.0	515.7712755738502	1019.8426250997913	0.0	539.7036771201745	983.2118267997131	0.0	617.6757024387987	726.8842181429916	0.0	600.7049823877937	870.1948479751693	0.0	587.1446338829063	977.1881167268333	0.0	582.2283351973773	1029.2294916563437	0.0	602.4081819106849	1020.9408921328572	0.0	581.9028590419794	990.4098135428354	0.0	596.8006599968232	514.9622384047525	0.0	589.8978486080874	402.59433138597325	0.0	592.0948217570933	488.7589566274563	0.0	531.2097147234007	540.4907514593052	0.0	500.95692804106403	651.5988480251057	0.0	484.8028443494433	745.4684595380262	0.0	664.3237326481593	541.3183150461783	0.0	688.7837664172438	652.9546469576414	0.0	695.8396526477854	749.6673847043941	0.0
434	17.370046296296294	581.0092425624574	730.0521167794993	0.0	541.0021022679157	728.9501266023256	0.0	534.809132680259	879.2228567542297	0.0	531.1957694451396	996.7761456835349	0.0	527.7946908012584	1052.1846494111592	0.0	510.42981611840986	1042.6287265913868	0.0	533.0590786799612	1013.6720223790303	0.0	617.6763167772533	731.753919747803	0.0	600.3920889834328	877.3756233392066	0.0	586.0161527628773	976.9439730447486	0.0	582.4891418382721	1029.731900986778	0.0	602.5347007006976	1020.7331826115699	0.0	581.0481847048974	985.4791209765907	0.0	596.008379659489	516.8174210364756	0.0	588.6568070999034	401.888779753978	0.0	591.7095329800716	488.78701640428733	0.0	531.0423242244833	543.3823612518271	0.0	500.88087191196405	654.5497338032263	0.0	484.46038441878295	747.1433553013053	0.0	664.977072446293	545.2353893059221	0.0	691.0110878197618	656.9256828091043	0.0	696.5066636312274	755.1792364629271	0.0
435	17.410069444444446	580.4903219120258	736.5948635135916	0.0	540.0734909641708	735.9415226351103	0.0	534.8877018454642	889.2631413780788	0.0	527.0589956970811	1018.8632267090394	0.0	524.7614693661722	1071.357673556125	0.0	505.9686403116467	1062.529955504877	0.0	527.5494255234995	1036.7694832331463	0.0	618.4216759146732	738.6881916543139	0.0	600.1845475640242	882.1200760953074	0.0	585.4791495106662	976.8668707163253	0.0	583.3987233373798	1031.8208149857612	0.0	603.6250047641794	1022.4559284285963	0.0	579.9087174051783	984.1684105044709	0.0	595.2128470528966	518.8050234808497	0.0	588.3694236015486	404.73753308909494	0.0	591.0915908656542	488.60296974697815	0.0	530.1849115006642	546.5363103866181	0.0	500.678352584603	658.0436253181327	0.0	482.8953941394777	748.8349993181071	0.0	664.8964916359032	548.743480685235	0.0	690.5578951439528	662.7883730838487	0.0	696.8665640925807	761.3787246527642	0.0
436	17.450092592592593	580.3685752056692	743.0574585793469	0.0	540.0226781058468	743.5250560603135	0.0	535.3798219076791	896.8702857455178	0.0	526.0836925352437	1036.2901748246911	0.0	525.2126301505583	1085.8963002324308	0.0	505.2734154897595	1078.3655167438906	0.0	526.1464261937327	1052.1390499188142	0.0	618.5177708675491	745.8279152690399	0.0	600.113096786454	884.6287652355783	0.0	584.9776404030388	977.9510976635346	0.0	583.9289574636887	1036.6661995733998	0.0	604.8091567351861	1026.0892188275732	0.0	578.8245347100093	986.545720506715	0.0	594.9632418340137	520.2740188178293	0.0	588.6984706664167	409.9208318327197	0.0	591.3311165584561	487.4644459059777	0.0	529.1055662424872	549.6468557661906	0.0	499.78640431986196	661.7892968318624	0.0	480.9046577679645	753.0101105538129	0.0	664.0531796763074	551.851182162091	0.0	688.8599053219004	669.4148279421432	0.0	696.457331672981	768.4765192093594	0.0
437	17.49011574074074	579.7485977387678	747.4617777719662	0.0	540.4780147734208	749.3291345399304	0.0	537.0162551848358	900.4852433084113	0.0	529.0861621097673	1041.3324100295265	0.0	530.1642100311605	1090.4928632139668	0.0	511.2135178142327	1084.1297945263723	0.0	528.7174128240754	1059.7077028381873	0.0	617.2827327426163	750.8924975992458	0.0	599.9206592485216	887.8090704406948	0.0	584.073638356898	980.084338588147	0.0	582.9143121032741	1042.1876462457265	0.0	604.8275768527648	1029.2466091934978	0.0	578.2557237416627	990.5728285423962	0.0	594.5774106386765	521.818526891909	0.0	588.8535417677723	413.4996016918647	0.0	593.6970312090157	487.09820259254315	0.0	528.6629336764141	553.1370511502186	0.0	498.27627144439987	666.7905908166134	0.0	480.01303051431455	760.9708687025476	0.0	662.1389404788108	555.1855213850101	0.0	687.1697770739364	673.8496237964125	0.0	694.2041485360835	773.8961703278461	0.0
